<mxfile host="drawio-plugin" modified="2022-09-19T11:51:50.831Z" agent="5.0 (Macintosh; Intel Mac OS X 10_15_7) AppleWebKit/537.36 (KHTML, like Gecko) Chrome/97.0.4692.45 Safari/537.36" etag="sijANN7QGq_a16e1sDHF" version="15.5.4" type="embed"><diagram id="27UEhvcbevQ5RNf_Fo5W" name="Status Quo"><mxGraphModel dx="721" dy="344" grid="1" gridSize="10" guides="1" tooltips="1" connect="1" arrows="1" fold="1" page="1" pageScale="1" pageWidth="827" pageHeight="1169" math="0" shadow="0"><root><mxCell id="0"/><mxCell id="1" parent="0"/><mxCell id="v9o1EjOYfUyvCHoG_roD-115" value="DWH Team" style="ellipse;whiteSpace=wrap;html=1;verticalAlign=middle;fillColor=#EBEBEB;sketch=1;fontFamily=Architects Daughter;fontSource=https%3A%2F%2Ffonts.googleapis.com%2Fcss%3Ffamily%3DArchitects%2BDaughter;" parent="1" vertex="1"><mxGeometry x="458" y="253.5" width="190" height="120" as="geometry"/></mxCell><mxCell id="95" value="Domain Team" style="ellipse;whiteSpace=wrap;html=1;verticalAlign=middle;fillColor=#FFEB99;strokeColor=#FFD966;sketch=1;fontFamily=Architects Daughter;fontSource=https%3A%2F%2Ffonts.googleapis.com%2Fcss%3Ffamily%3DArchitects%2BDaughter;" parent="1" vertex="1"><mxGeometry x="570" y="153.75" width="218" height="116.25" as="geometry"/></mxCell><mxCell id="24" value="Central &lt;br&gt;Data Team" style="ellipse;whiteSpace=wrap;html=1;fillColor=#EBEBEB;sketch=1;fontFamily=Architects Daughter;fontSource=https%3A%2F%2Ffonts.googleapis.com%2Fcss%3Ffamily%3DArchitects%2BDaughter;" parent="1" vertex="1"><mxGeometry x="90" y="186" width="270" height="180" as="geometry"/></mxCell><mxCell id="41" value="" style="shape=singleArrow;whiteSpace=wrap;html=1;arrowWidth=0.5;arrowSize=0.29;sketch=1;fontFamily=Architects Daughter;fontSource=https%3A%2F%2Ffonts.googleapis.com%2Fcss%3Ffamily%3DArchitects%2BDaughter;" parent="1" vertex="1"><mxGeometry x="381" y="249.5" width="70" height="41" as="geometry"/></mxCell><mxCell id="57" value="" style="shape=umlActor;verticalLabelPosition=bottom;verticalAlign=top;html=1;outlineConnect=0;sketch=1;fontFamily=Architects Daughter;fontSource=https%3A%2F%2Ffonts.googleapis.com%2Fcss%3Ffamily%3DArchitects%2BDaughter;" parent="1" vertex="1"><mxGeometry x="280" y="211.5" width="20" height="30" as="geometry"/></mxCell><mxCell id="58" value="" style="shape=umlActor;verticalLabelPosition=bottom;verticalAlign=top;html=1;outlineConnect=0;sketch=1;fontFamily=Architects Daughter;fontSource=https%3A%2F%2Ffonts.googleapis.com%2Fcss%3Ffamily%3DArchitects%2BDaughter;" parent="1" vertex="1"><mxGeometry x="292" y="221.5" width="20" height="30" as="geometry"/></mxCell><mxCell id="64" value="" style="rounded=0;orthogonalLoop=1;jettySize=auto;html=1;exitX=0.5;exitY=0;exitDx=0;exitDy=0;exitPerimeter=0;entryX=0.5;entryY=1;entryDx=0;entryDy=0;sketch=1;fontFamily=Architects Daughter;fontSource=https%3A%2F%2Ffonts.googleapis.com%2Fcss%3Ffamily%3DArchitects%2BDaughter;" parent="1" source="63" target="61" edge="1"><mxGeometry relative="1" as="geometry"/></mxCell><mxCell id="61" value="Report" style="rounded=0;whiteSpace=wrap;html=1;sketch=1;fontFamily=Architects Daughter;fontSource=https%3A%2F%2Ffonts.googleapis.com%2Fcss%3Ffamily%3DArchitects%2BDaughter;" parent="1" vertex="1"><mxGeometry x="130" y="161" width="86" height="40" as="geometry"/></mxCell><mxCell id="62" value="" style="endArrow=classic;html=1;rounded=0;dashed=1;exitX=0.5;exitY=0.5;exitDx=0;exitDy=0;exitPerimeter=0;sketch=1;fontFamily=Architects Daughter;fontSource=https%3A%2F%2Ffonts.googleapis.com%2Fcss%3Ffamily%3DArchitects%2BDaughter;" parent="1" source="77" target="61" edge="1"><mxGeometry width="50" height="50" relative="1" as="geometry"><mxPoint x="300" y="131.5" as="sourcePoint"/><mxPoint x="350" y="81.5" as="targetPoint"/></mxGeometry></mxCell><mxCell id="63" value="Monolithic DWH" style="shape=cylinder3;whiteSpace=wrap;html=1;boundedLbl=1;backgroundOutline=1;size=15;sketch=1;fontFamily=Architects Daughter;fontSource=https%3A%2F%2Ffonts.googleapis.com%2Fcss%3Ffamily%3DArchitects%2BDaughter;" parent="1" vertex="1"><mxGeometry x="120" y="251.5" width="60" height="65" as="geometry"/></mxCell><mxCell id="77" value="Business" style="shape=umlActor;verticalLabelPosition=bottom;verticalAlign=top;html=1;outlineConnect=0;sketch=1;fontFamily=Architects Daughter;fontSource=https%3A%2F%2Ffonts.googleapis.com%2Fcss%3Ffamily%3DArchitects%2BDaughter;" parent="1" vertex="1"><mxGeometry x="163" y="56.5" width="20" height="30" as="geometry"/></mxCell><mxCell id="82" value="" style="shape=umlActor;verticalLabelPosition=bottom;verticalAlign=top;html=1;outlineConnect=0;sketch=1;fontFamily=Architects Daughter;fontSource=https%3A%2F%2Ffonts.googleapis.com%2Fcss%3Ffamily%3DArchitects%2BDaughter;" parent="1" vertex="1"><mxGeometry x="734" y="178.25" width="20" height="30" as="geometry"/></mxCell><mxCell id="83" value="Engineer" style="shape=umlActor;verticalLabelPosition=bottom;verticalAlign=top;html=1;outlineConnect=0;sketch=1;fontFamily=Architects Daughter;fontSource=https%3A%2F%2Ffonts.googleapis.com%2Fcss%3Ffamily%3DArchitects%2BDaughter;" parent="1" vertex="1"><mxGeometry x="744" y="188.25" width="20" height="30" as="geometry"/></mxCell><mxCell id="85" value="Domain" style="ellipse;whiteSpace=wrap;html=1;fillColor=#FFEB99;strokeColor=#FFD966;sketch=1;fontFamily=Architects Daughter;fontSource=https%3A%2F%2Ffonts.googleapis.com%2Fcss%3Ffamily%3DArchitects%2BDaughter;" parent="1" vertex="1"><mxGeometry x="458" y="390" width="120" height="81" as="geometry"/></mxCell><mxCell id="86" value="Domain" style="ellipse;whiteSpace=wrap;html=1;fillColor=#FFEB99;strokeColor=#FFD966;sketch=1;fontFamily=Architects Daughter;fontSource=https%3A%2F%2Ffonts.googleapis.com%2Fcss%3Ffamily%3DArchitects%2BDaughter;" parent="1" vertex="1"><mxGeometry x="649" y="390" width="120" height="81" as="geometry"/></mxCell><mxCell id="88" value="Data Product" style="rounded=0;whiteSpace=wrap;html=1;sketch=1;fontFamily=Architects Daughter;fontSource=https%3A%2F%2Ffonts.googleapis.com%2Fcss%3Ffamily%3DArchitects%2BDaughter;" parent="1" vertex="1"><mxGeometry x="636" y="373.5" width="86" height="40" as="geometry"/></mxCell><mxCell id="89" value="" style="endArrow=classic;html=1;rounded=0;sketch=1;fontFamily=Architects Daughter;fontSource=https%3A%2F%2Ffonts.googleapis.com%2Fcss%3Ffamily%3DArchitects%2BDaughter;" parent="1" source="85" target="v9o1EjOYfUyvCHoG_roD-116" edge="1"><mxGeometry width="50" height="50" relative="1" as="geometry"><mxPoint x="550" y="373.5" as="sourcePoint"/><mxPoint x="422" y="240" as="targetPoint"/></mxGeometry></mxCell><mxCell id="90" value="" style="endArrow=none;html=1;rounded=0;entryX=0.75;entryY=1;entryDx=0;entryDy=0;exitX=0.5;exitY=0;exitDx=0;exitDy=0;sketch=1;fontFamily=Architects Daughter;fontSource=https%3A%2F%2Ffonts.googleapis.com%2Fcss%3Ffamily%3DArchitects%2BDaughter;startArrow=classic;startFill=1;endFill=0;dashed=1;" parent="1" source="88" target="84" edge="1"><mxGeometry width="50" height="50" relative="1" as="geometry"><mxPoint x="487" y="320" as="sourcePoint"/><mxPoint x="524.5" y="200" as="targetPoint"/></mxGeometry></mxCell><mxCell id="92" value="" style="endArrow=classic;html=1;rounded=0;dashed=1;entryX=0.5;entryY=0;entryDx=0;entryDy=0;sketch=1;fontFamily=Architects Daughter;fontSource=https%3A%2F%2Ffonts.googleapis.com%2Fcss%3Ffamily%3DArchitects%2BDaughter;" parent="1" source="94" target="84" edge="1"><mxGeometry width="50" height="50" relative="1" as="geometry"><mxPoint x="457" y="186.5" as="sourcePoint"/><mxPoint x="-94.68539325842698" y="291" as="targetPoint"/></mxGeometry></mxCell><mxCell id="94" value="Business" style="shape=umlActor;verticalLabelPosition=bottom;verticalAlign=top;html=1;outlineConnect=0;sketch=1;fontFamily=Architects Daughter;fontSource=https%3A%2F%2Ffonts.googleapis.com%2Fcss%3Ffamily%3DArchitects%2BDaughter;" parent="1" vertex="1"><mxGeometry x="669" y="56.5" width="20" height="30" as="geometry"/></mxCell><mxCell id="84" value="Report" style="rounded=0;whiteSpace=wrap;html=1;sketch=1;fontFamily=Architects Daughter;fontSource=https%3A%2F%2Ffonts.googleapis.com%2Fcss%3Ffamily%3DArchitects%2BDaughter;" parent="1" vertex="1"><mxGeometry x="634" y="138.25" width="86" height="40" as="geometry"/></mxCell><mxCell id="96" value="Product &lt;br&gt;Owner" style="shape=umlActor;verticalLabelPosition=bottom;verticalAlign=top;html=1;outlineConnect=0;sketch=1;fontFamily=Architects Daughter;fontSource=https%3A%2F%2Ffonts.googleapis.com%2Fcss%3Ffamily%3DArchitects%2BDaughter;" parent="1" vertex="1"><mxGeometry x="602" y="186.75" width="20" height="30" as="geometry"/></mxCell><mxCell id="98" value="Domain" style="ellipse;whiteSpace=wrap;html=1;fillColor=#FFEB99;strokeColor=#FFD966;sketch=1;fontFamily=Architects Daughter;fontSource=https%3A%2F%2Ffonts.googleapis.com%2Fcss%3Ffamily%3DArchitects%2BDaughter;" parent="1" vertex="1"><mxGeometry x="40" y="390" width="120" height="81" as="geometry"/></mxCell><mxCell id="99" value="Domain" style="ellipse;whiteSpace=wrap;html=1;fillColor=#FFEB99;strokeColor=#FFD966;sketch=1;fontFamily=Architects Daughter;fontSource=https%3A%2F%2Ffonts.googleapis.com%2Fcss%3Ffamily%3DArchitects%2BDaughter;" parent="1" vertex="1"><mxGeometry x="210" y="390" width="120" height="81" as="geometry"/></mxCell><mxCell id="100" value="" style="rounded=0;orthogonalLoop=1;jettySize=auto;html=1;exitX=0.5;exitY=0;exitDx=0;exitDy=0;entryX=0.145;entryY=1;entryDx=0;entryDy=-4.35;entryPerimeter=0;sketch=1;fontFamily=Architects Daughter;fontSource=https%3A%2F%2Ffonts.googleapis.com%2Fcss%3Ffamily%3DArchitects%2BDaughter;" parent="1" source="98" target="63" edge="1"><mxGeometry relative="1" as="geometry"><mxPoint x="160" y="261.5" as="sourcePoint"/><mxPoint x="183" y="211" as="targetPoint"/></mxGeometry></mxCell><mxCell id="101" value="" style="rounded=0;orthogonalLoop=1;jettySize=auto;html=1;exitX=0;exitY=0;exitDx=0;exitDy=0;entryX=0.855;entryY=1;entryDx=0;entryDy=-4.35;entryPerimeter=0;sketch=1;fontFamily=Architects Daughter;fontSource=https%3A%2F%2Ffonts.googleapis.com%2Fcss%3Ffamily%3DArchitects%2BDaughter;" parent="1" source="99" target="63" edge="1"><mxGeometry relative="1" as="geometry"><mxPoint x="110" y="400" as="sourcePoint"/><mxPoint x="138.70000000000005" y="322.15" as="targetPoint"/></mxGeometry></mxCell><mxCell id="v9o1EjOYfUyvCHoG_roD-101" value="Domain Team" style="ellipse;whiteSpace=wrap;html=1;verticalAlign=middle;fillColor=#FFEB99;strokeColor=#FFD966;sketch=1;fontFamily=Architects Daughter;fontSource=https%3A%2F%2Ffonts.googleapis.com%2Fcss%3Ffamily%3DArchitects%2BDaughter;" parent="1" vertex="1"><mxGeometry x="919" y="176.5" width="237" height="140" as="geometry"/></mxCell><mxCell id="v9o1EjOYfUyvCHoG_roD-102" value="" style="shape=singleArrow;whiteSpace=wrap;html=1;arrowWidth=0.5;arrowSize=0.29;sketch=1;fontFamily=Architects Daughter;fontSource=https%3A%2F%2Ffonts.googleapis.com%2Fcss%3Ffamily%3DArchitects%2BDaughter;" parent="1" vertex="1"><mxGeometry x="808" y="249.5" width="70" height="41" as="geometry"/></mxCell><mxCell id="v9o1EjOYfUyvCHoG_roD-103" value="" style="shape=umlActor;verticalLabelPosition=bottom;verticalAlign=top;html=1;outlineConnect=0;sketch=1;fontFamily=Architects Daughter;fontSource=https%3A%2F%2Ffonts.googleapis.com%2Fcss%3Ffamily%3DArchitects%2BDaughter;" parent="1" vertex="1"><mxGeometry x="1102" y="201" width="20" height="30" as="geometry"/></mxCell><mxCell id="v9o1EjOYfUyvCHoG_roD-104" value="Engineer" style="shape=umlActor;verticalLabelPosition=bottom;verticalAlign=top;html=1;outlineConnect=0;sketch=1;fontFamily=Architects Daughter;fontSource=https%3A%2F%2Ffonts.googleapis.com%2Fcss%3Ffamily%3DArchitects%2BDaughter;" parent="1" vertex="1"><mxGeometry x="1112" y="211" width="20" height="30" as="geometry"/></mxCell><mxCell id="v9o1EjOYfUyvCHoG_roD-105" value="Domain" style="ellipse;whiteSpace=wrap;html=1;fillColor=#FFEB99;strokeColor=#FFD966;sketch=1;fontFamily=Architects Daughter;fontSource=https%3A%2F%2Ffonts.googleapis.com%2Fcss%3Ffamily%3DArchitects%2BDaughter;" parent="1" vertex="1"><mxGeometry x="879" y="390" width="120" height="81" as="geometry"/></mxCell><mxCell id="v9o1EjOYfUyvCHoG_roD-106" value="Domain" style="ellipse;whiteSpace=wrap;html=1;fillColor=#FFEB99;strokeColor=#FFD966;sketch=1;fontFamily=Architects Daughter;fontSource=https%3A%2F%2Ffonts.googleapis.com%2Fcss%3Ffamily%3DArchitects%2BDaughter;" parent="1" vertex="1"><mxGeometry x="1049" y="390" width="120" height="81" as="geometry"/></mxCell><mxCell id="v9o1EjOYfUyvCHoG_roD-107" value="Data Product" style="rounded=0;whiteSpace=wrap;html=1;sketch=1;fontFamily=Architects Daughter;fontSource=https%3A%2F%2Ffonts.googleapis.com%2Fcss%3Ffamily%3DArchitects%2BDaughter;" parent="1" vertex="1"><mxGeometry x="929" y="373.5" width="84" height="40" as="geometry"/></mxCell><mxCell id="v9o1EjOYfUyvCHoG_roD-108" value="Data Product" style="rounded=0;whiteSpace=wrap;html=1;sketch=1;fontFamily=Architects Daughter;fontSource=https%3A%2F%2Ffonts.googleapis.com%2Fcss%3Ffamily%3DArchitects%2BDaughter;" parent="1" vertex="1"><mxGeometry x="1102" y="373.5" width="86" height="40" as="geometry"/></mxCell><mxCell id="v9o1EjOYfUyvCHoG_roD-109" value="" style="endArrow=none;html=1;rounded=0;entryX=0.25;entryY=1;entryDx=0;entryDy=0;exitX=0.5;exitY=0;exitDx=0;exitDy=0;sketch=1;fontFamily=Architects Daughter;fontSource=https%3A%2F%2Ffonts.googleapis.com%2Fcss%3Ffamily%3DArchitects%2BDaughter;startArrow=classic;startFill=1;endFill=0;dashed=1;" parent="1" source="v9o1EjOYfUyvCHoG_roD-107" target="v9o1EjOYfUyvCHoG_roD-113" edge="1"><mxGeometry width="50" height="50" relative="1" as="geometry"><mxPoint x="793" y="290" as="sourcePoint"/><mxPoint x="843" y="240" as="targetPoint"/></mxGeometry></mxCell><mxCell id="v9o1EjOYfUyvCHoG_roD-110" value="" style="endArrow=none;html=1;rounded=0;entryX=0.75;entryY=1;entryDx=0;entryDy=0;exitX=0.5;exitY=0;exitDx=0;exitDy=0;sketch=1;fontFamily=Architects Daughter;fontSource=https%3A%2F%2Ffonts.googleapis.com%2Fcss%3Ffamily%3DArchitects%2BDaughter;startArrow=classic;startFill=1;endFill=0;dashed=1;" parent="1" source="v9o1EjOYfUyvCHoG_roD-108" target="v9o1EjOYfUyvCHoG_roD-113" edge="1"><mxGeometry width="50" height="50" relative="1" as="geometry"><mxPoint x="908" y="320" as="sourcePoint"/><mxPoint x="945.5" y="200" as="targetPoint"/></mxGeometry></mxCell><mxCell id="v9o1EjOYfUyvCHoG_roD-111" value="" style="endArrow=classic;html=1;rounded=0;dashed=1;entryX=0.5;entryY=0;entryDx=0;entryDy=0;sketch=1;fontFamily=Architects Daughter;fontSource=https%3A%2F%2Ffonts.googleapis.com%2Fcss%3Ffamily%3DArchitects%2BDaughter;" parent="1" source="v9o1EjOYfUyvCHoG_roD-112" target="v9o1EjOYfUyvCHoG_roD-113" edge="1"><mxGeometry width="50" height="50" relative="1" as="geometry"><mxPoint x="878" y="186.5" as="sourcePoint"/><mxPoint x="326.314606741573" y="291" as="targetPoint"/></mxGeometry></mxCell><mxCell id="v9o1EjOYfUyvCHoG_roD-112" value="Business" style="shape=umlActor;verticalLabelPosition=bottom;verticalAlign=top;html=1;outlineConnect=0;sketch=1;fontFamily=Architects Daughter;fontSource=https%3A%2F%2Ffonts.googleapis.com%2Fcss%3Ffamily%3DArchitects%2BDaughter;" parent="1" vertex="1"><mxGeometry x="1035" y="56.5" width="20" height="30" as="geometry"/></mxCell><mxCell id="v9o1EjOYfUyvCHoG_roD-113" value="Report" style="rounded=0;whiteSpace=wrap;html=1;sketch=1;fontFamily=Architects Daughter;fontSource=https%3A%2F%2Ffonts.googleapis.com%2Fcss%3Ffamily%3DArchitects%2BDaughter;" parent="1" vertex="1"><mxGeometry x="1002" y="161" width="86" height="40" as="geometry"/></mxCell><mxCell id="v9o1EjOYfUyvCHoG_roD-114" value="Product &lt;br&gt;Owner" style="shape=umlActor;verticalLabelPosition=bottom;verticalAlign=top;html=1;outlineConnect=0;sketch=1;fontFamily=Architects Daughter;fontSource=https%3A%2F%2Ffonts.googleapis.com%2Fcss%3Ffamily%3DArchitects%2BDaughter;" parent="1" vertex="1"><mxGeometry x="949" y="209.5" width="20" height="30" as="geometry"/></mxCell><mxCell id="v9o1EjOYfUyvCHoG_roD-116" value="Legacy DWH" style="shape=cylinder3;whiteSpace=wrap;html=1;boundedLbl=1;backgroundOutline=1;size=5;sketch=1;fontFamily=Architects Daughter;fontSource=https%3A%2F%2Ffonts.googleapis.com%2Fcss%3Ffamily%3DArchitects%2BDaughter;" parent="1" vertex="1"><mxGeometry x="468" y="277.75" width="50" height="46" as="geometry"/></mxCell><mxCell id="v9o1EjOYfUyvCHoG_roD-117" value="" style="shape=umlActor;verticalLabelPosition=bottom;verticalAlign=top;html=1;outlineConnect=0;sketch=1;fontFamily=Architects Daughter;fontSource=https%3A%2F%2Ffonts.googleapis.com%2Fcss%3Ffamily%3DArchitects%2BDaughter;" parent="1" vertex="1"><mxGeometry x="260" y="218.25" width="20" height="30" as="geometry"/></mxCell><mxCell id="v9o1EjOYfUyvCHoG_roD-118" value="Data &lt;br&gt;Engineer" style="shape=umlActor;verticalLabelPosition=bottom;verticalAlign=top;html=1;outlineConnect=0;sketch=1;fontFamily=Architects Daughter;fontSource=https%3A%2F%2Ffonts.googleapis.com%2Fcss%3Ffamily%3DArchitects%2BDaughter;" parent="1" vertex="1"><mxGeometry x="602" y="290.5" width="20" height="30" as="geometry"/></mxCell><mxCell id="v9o1EjOYfUyvCHoG_roD-122" value="" style="endArrow=none;html=1;rounded=0;entryX=0.25;entryY=1;entryDx=0;entryDy=0;exitX=0.855;exitY=0;exitDx=0;exitDy=1.45;exitPerimeter=0;sketch=1;fontFamily=Architects Daughter;fontSource=https%3A%2F%2Ffonts.googleapis.com%2Fcss%3Ffamily%3DArchitects%2BDaughter;startArrow=classic;startFill=1;endFill=0;dashed=1;" parent="1" source="v9o1EjOYfUyvCHoG_roD-116" target="84" edge="1"><mxGeometry width="50" height="50" relative="1" as="geometry"><mxPoint x="528" y="400" as="sourcePoint"/><mxPoint x="528" y="349.75" as="targetPoint"/></mxGeometry></mxCell><mxCell id="v9o1EjOYfUyvCHoG_roD-124" value="Other Reports" style="rounded=0;whiteSpace=wrap;html=1;sketch=1;fontFamily=Architects Daughter;fontSource=https%3A%2F%2Ffonts.googleapis.com%2Fcss%3Ffamily%3DArchitects%2BDaughter;" parent="1" vertex="1"><mxGeometry x="458" y="226.5" width="86" height="40" as="geometry"/></mxCell><mxCell id="v9o1EjOYfUyvCHoG_roD-125" value="Data Engineer" style="text;html=1;strokeColor=none;fillColor=none;align=center;verticalAlign=middle;whiteSpace=wrap;rounded=0;sketch=1;fontFamily=Architects Daughter;fontSource=https%3A%2F%2Ffonts.googleapis.com%2Fcss%3Ffamily%3DArchitects%2BDaughter;" parent="1" vertex="1"><mxGeometry x="260" y="252.5" width="60" height="30" as="geometry"/></mxCell><mxCell id="102" value="Domain Team" style="ellipse;whiteSpace=wrap;html=1;verticalAlign=middle;fillColor=#FFEB99;strokeColor=#FFD966;sketch=1;fontFamily=Architects Daughter;fontSource=https%3A%2F%2Ffonts.googleapis.com%2Fcss%3Ffamily%3DArchitects%2BDaughter;" vertex="1" parent="1"><mxGeometry x="1128.5" y="138.25" width="98" height="62.25" as="geometry"/></mxCell><mxCell id="105" value="Domain Team" style="ellipse;whiteSpace=wrap;html=1;verticalAlign=middle;fillColor=#FFEB99;strokeColor=#FFD966;sketch=1;fontFamily=Architects Daughter;fontSource=https%3A%2F%2Ffonts.googleapis.com%2Fcss%3Ffamily%3DArchitects%2BDaughter;" vertex="1" parent="1"><mxGeometry x="850" y="138.25" width="98" height="62.25" as="geometry"/></mxCell><mxCell id="106" value="Microservice" style="rounded=0;whiteSpace=wrap;html=1;sketch=1;fontFamily=Architects Daughter;fontSource=https%3A%2F%2Ffonts.googleapis.com%2Fcss%3Ffamily%3DArchitects%2BDaughter;" vertex="1" parent="1"><mxGeometry x="876" y="127.5" width="84" height="26.25" as="geometry"/></mxCell><mxCell id="107" value="ML Model" style="rounded=0;whiteSpace=wrap;html=1;sketch=1;fontFamily=Architects Daughter;fontSource=https%3A%2F%2Ffonts.googleapis.com%2Fcss%3Ffamily%3DArchitects%2BDaughter;" vertex="1" parent="1"><mxGeometry x="1164.5" y="127.5" width="76" height="26.25" as="geometry"/></mxCell></root></mxGraphModel></diagram></mxfile>